<?xml version="1.0" encoding="UTF-8"?>
<svg id="Capa_1" data-name="Capa 1" xmlns="http://www.w3.org/2000/svg" viewBox="0 0 200 200">
  <defs>
    <style>
      .cls-1 {
        fill: #fff;
      }

      .cls-2 {
        fill: none;
        stroke: #fff;
        stroke-miterlimit: 10;
        stroke-width: 12px;
      }
    </style>
  </defs>
  <path class="cls-1" d="M152,150.53h-1.52c-7.64,0-15.29-.03-22.93.03-1.2,0-2-.34-2.81-1.24-14.48-16.21-29.01-32.4-43.53-48.58-.22-.24-.45-.47-.85-.9v50.63h-18.96V50.62h18.89v46.26c.11.08.22.16.32.25.19-.28.36-.59.59-.84,11.4-12.9,22.8-25.79,34.2-38.68,1.89-2.14,3.76-4.29,5.68-6.39.3-.33.83-.63,1.26-.64,7.5-.04,14.99-.03,22.49-.03.11,0,.22.03.57.07-5.7,6.51-11.3,12.92-16.94,19.36,2.53,2.86,5.11,5.61,7.49,8.52,1.2,1.46,2.44,2.03,4.35,1.97,4.42-.16,8.85-.07,13.27-.08h1.26v6.36h-1.34c-12.91,0-25.82,0-38.72-.02-.76,0-1.28.21-1.78.79-2.97,3.37-5.97,6.72-9.05,10.16,1.37,1.48,2.72,2.94,4.09,4.41,1.62,1.74,3.25,3.46,4.84,5.23.56.62,1.12.89,1.97.89,12.84-.03,25.67-.02,38.5-.02h1.49v6.22h-1.14c-4.94,0-9.87,0-14.81,0-.71,0-1.21.17-1.68.74-2.68,3.24-5.39,6.45-8.2,9.77,7.63,8.48,15.22,16.94,23.02,25.63Z"/>
  <polygon class="cls-2" points="101.67 10.2 23.5 55.33 23.5 145.59 101.67 190.73 179.84 145.59 179.84 55.33 101.67 10.2"/>
</svg>