<?xml version="1.0" encoding="UTF-8"?>
<svg id="Capa_1" data-name="Capa 1" xmlns="http://www.w3.org/2000/svg" viewBox="0 0 1027.12 211.31">
  <defs>
    <style>
      .cls-1 {
        fill: #fff;
      }

      .cls-2 {
        fill: none;
        stroke: #fff;
        stroke-miterlimit: 10;
        stroke-width: 12px;
      }
    </style>
  </defs>
  <g>
    <path class="cls-1" d="M637.8,107.53c7.24,12.08,14.29,23.81,21.53,35.89-5.89,0-11.39.06-16.88-.08-.61-.02-1.36-1.04-1.77-1.77-5.66-10.27-11.33-20.55-16.88-30.88-.77-1.44-1.63-1.94-3.21-1.86-2.67.12-5.36.04-8.31.04v34.43h-14.36V62.01c.54-.04,1.06-.13,1.57-.13,9.75,0,19.51-.17,29.24.04,7.53.17,14.84,1.48,20.89,6.53,2.9,2.42,4.92,5.47,5.91,9.12,1.32,4.84,1.42,9.75.13,14.56-2.17,8.05-7.49,13-15.63,14.86-.65.19-1.31.35-2.25.56ZM612.38,74.1v22.25c4.78,0,9.37.04,13.96-.02,1.54-.02,3.07-.15,4.57-.4,4.4-.77,8.39-2.23,9.81-7.09,2.15-7.39-1.67-13.19-9.58-13.96-6.14-.61-12.39-.56-18.76-.79Z"/>
    <path class="cls-1" d="M763.84,108.88v34.39h-14.34V62.04c.56-.06,1.13-.15,1.73-.15,9.68-.02,19.36-.17,29.01.04,7.53.15,14.84,1.44,20.91,6.45,2.98,2.46,5.03,5.57,6.03,9.31,1.29,4.84,1.38,9.75.08,14.56-2.17,7.95-7.45,12.85-15.48,14.75-.71.17-1.44.33-2.38.54,7.18,11.98,14.23,23.73,21.53,35.91-3.97,0-7.66-.4-11.21.1-4.92.67-7.45-1.21-9.62-5.61-4.57-9.27-9.85-18.2-14.75-27.32-.73-1.36-1.52-1.84-3.03-1.77-2.71.13-5.47.04-8.47.04ZM764.02,74.08v21.85c6.32,0,12.46.31,18.55-.1,4.42-.31,8.39-2.15,9.79-7.03,2.11-7.32-1.57-13.08-9.39-13.9-6.22-.67-12.52-.58-18.95-.83Z"/>
    <path class="cls-1" d="M527.35,143.35V62.01h53.76v12.98h-39.31v20.03h37.23v13.1h-37.17v22.1h41.28v13.13c-18.59,0-37.06,0-55.8,0Z"/>
    <path class="cls-1" d="M303.92,143.44c-6.87,0-13.17.06-19.45-.06-.81-.02-1.8-.73-2.4-1.38-10.91-12.29-21.74-24.62-32.6-36.93-.54-.61-1.11-1.19-2.11-2.23v40.44h-14.48V62.06h14.31v34.62c3.71-3.63,7.07-6.84,10.31-10.14,7.76-7.87,15.46-15.8,23.2-23.68.4-.4,1-.9,1.5-.9,6.18-.06,12.37-.04,18.43-.04-12.33,12.67-24.6,25.29-37,38.06,13.17,14.15,26.56,28.59,40.3,43.45Z"/>
    <path class="cls-1" d="M895.7,143.44c-5.34,0-10.31.06-15.3-.06-.65-.02-1.57-.79-1.86-1.44-2.17-5.07-4.26-10.18-6.26-15.32-.52-1.32-1.17-1.88-2.67-1.86-10.45.06-20.89.08-31.34,0-1.59-.02-2.25.58-2.78,2-1.92,5.09-3.94,10.16-6.03,15.17-.27.65-1.21,1.44-1.84,1.46-4.92.12-9.81.06-15.09.06,1.4-3.26,2.73-6.32,4.05-9.37,10.14-23.33,20.32-46.66,30.4-70.01.73-1.67,1.52-2.32,3.36-2.23,2.9.17,5.84-.06,8.76.12.77.04,1.88.69,2.17,1.36,11.37,26.23,22.66,52.5,33.97,78.75.17.33.27.69.48,1.38ZM853.96,79.36c-4.34,11.31-8.45,21.95-12.6,32.76h25c-4.15-10.93-8.18-21.56-12.4-32.76Z"/>
    <path class="cls-1" d="M326.18,61.99v2.88c0,15.28-.04,30.57.04,45.85.02,2.44.19,4.93.69,7.3,1.77,8.33,8.26,13.23,16.8,13.56,10.27.38,16.8-5.66,18.47-13.81.46-2.23.6-4.57.61-6.86.06-15.44.02-30.88.02-46.31v-2.61h14.52v51.94c0,17.99-13.11,31.22-31.15,31.61-9.75.21-18.57-2.15-25.71-9.14-5.7-5.59-8.66-12.58-8.76-20.43-.23-17.59-.08-35.18-.08-52.75,0-.36.04-.73.08-1.21,4.8-.02,9.45-.02,14.46-.02Z"/>
    <path class="cls-1" d="M737.48,72.7c-3.9,2.86-7.55,5.53-11.23,8.26-.36-.27-.71-.42-.96-.69-9.47-10.5-24.79-8.39-33.1-1.92-8.31,6.45-11.46,15.23-11.16,25.5.36,12.62,7.53,23.12,18.43,26.94,10.06,3.53,19.18,1.21,26.33-6.68.46-.5.92-1,1.56-1.65,3.97,2.82,7.87,5.61,11.94,8.49-2.52,3.74-5.61,6.64-9.26,8.95-16.13,10.18-46.72,7.76-59.18-15.27-10-18.47-5.32-43.95,10.58-56.24,13.61-10.52,35.45-11.66,48.66-2.46,1.63,1.13,3.13,2.48,4.61,3.8.9.86,1.73,1.86,2.78,2.98Z"/>
    <path class="cls-1" d="M905.32,61.97h52.31v13.02h-37.92v21.39h35.66v13.19h-35.72v33.72h-14.34c.02-27.04.02-54.09.02-81.32Z"/>
    <path class="cls-1" d="M451.1,62.01v12.96h-24.89v68.38h-14.54v-68.36h-24.89v-12.98h64.31Z"/>
    <path class="cls-1" d="M492.66,143.38h-14.54v-68.3h-24.9v-13.02h64.21v12.83h-24.77v68.49Z"/>
    <path class="cls-1" d="M1002.35,143.38h-14.54v-68.3h-24.9v-13.02h64.21v12.83h-24.77v68.49Z"/>
  </g>
  <path class="cls-1" d="M146.55,160.42h-1.66c-8.36,0-16.72-.03-25.08.03-1.31.01-2.19-.37-3.07-1.36-15.84-17.73-31.73-35.44-47.61-53.14-.24-.26-.49-.51-.93-.98v55.38h-20.74V51.14h20.66v50.6c.12.09.24.18.35.27.21-.31.39-.64.64-.92,12.47-14.11,24.94-28.21,37.41-42.31,2.07-2.34,4.11-4.69,6.21-6.99.33-.36.91-.69,1.38-.7,8.2-.04,16.4-.03,24.6-.03.12,0,.24.03.62.08-6.23,7.12-12.36,14.13-18.53,21.18,2.77,3.13,5.59,6.14,8.19,9.32,1.31,1.6,2.67,2.22,4.76,2.15,4.83-.18,9.68-.08,14.51-.09h1.38v6.96h-1.47c-14.12,0-28.24.01-42.35-.02-.83,0-1.4.23-1.95.86-3.25,3.69-6.53,7.35-9.9,11.11,1.5,1.62,2.98,3.22,4.47,4.82,1.77,1.9,3.56,3.78,5.29,5.72.61.68,1.23.97,2.16.97,14.04-.03,28.08-.02,42.11-.02h1.63v6.8h-1.25c-5.4,0-10.8.01-16.2-.01-.78,0-1.32.19-1.84.81-2.93,3.54-5.9,7.05-8.97,10.69,8.34,9.27,16.65,18.53,25.18,28.03Z"/>
  <polygon class="cls-2" points="91.5 6.93 6 56.29 6 155.02 91.5 204.38 177 155.02 177 56.29 91.5 6.93"/>
</svg>