<?xml version="1.0" encoding="UTF-8"?>
<svg xmlns="http://www.w3.org/2000/svg" version="1.1" xmlns:cc="http://creativecommons.org/ns#" xmlns:dc="http://purl.org/dc/elements/1.1/" xmlns:inkscape="http://www.inkscape.org/namespaces/inkscape" xmlns:rdf="http://www.w3.org/1999/02/22-rdf-syntax-ns#" xmlns:sodipodi="http://sodipodi.sourceforge.net/DTD/sodipodi-0.dtd" xmlns:svg="http://www.w3.org/2000/svg" viewBox="0 0 64 64">
  <!-- Generator: Adobe Illustrator 29.5.1, SVG Export Plug-In . SVG Version: 2.1.0 Build 141)  -->
  <defs>
    <style>
      .st0, .st1, .st2 {
        fill: #fff;
      }

      .st1 {
        font-size: 7px;
      }

      .st1, .st2 {
        font-family: Montserrat-SemiBold, Montserrat;
        font-weight: 600;
      }

      .st2 {
        font-size: 4px;
      }

      .st3 {
        fill: none;
        stroke: #fff;
        stroke-miterlimit: 10;
        stroke-width: 2px;
      }

      .st4 {
        display: none;
        fill: #383838;
      }
    </style>
  </defs>
  <g id="svg4160" inkscape:version="1.0.2 (e86c870879, 2021-01-15, custom)" sodipodi:docname="klipper.svg">
    <sodipodi:namedview id="namedview8" bordercolor="#666666" borderopacity="1" gridtolerance="10" guidetolerance="10" inkscape:bbox-nodes="true" inkscape:bbox-paths="true" inkscape:current-layer="layer2" inkscape:cx="27.157851" inkscape:cy="34.186983" inkscape:document-rotation="0" inkscape:pagecheckerboard="true" inkscape:pageopacity="0" inkscape:pageshadow="2" inkscape:snap-bbox="true" inkscape:snap-bbox-edge-midpoints="true" inkscape:snap-bbox-midpoints="true" inkscape:window-height="837" inkscape:window-maximized="1" inkscape:window-width="1600" inkscape:window-x="-8" inkscape:window-y="-8" inkscape:zoom="9.453125" objecttolerance="10" pagecolor="#ffffff" showgrid="false">
      <inkscape:grid id="grid832" type="xygrid"/>
    </sodipodi:namedview>
    <rect class="st4" y="-.27" width="64.27" height="64.27"/>
    <g>
      <path class="st0" d="M45.42,38.81h-.4c-2.02,0-4.03,0-6.05,0-.32,0-.53-.09-.74-.33-3.82-4.27-7.65-8.54-11.48-12.81-.06-.06-.12-.12-.22-.24v13.35h-5V12.47h4.98v12.2s.06.04.08.07c.05-.07.09-.15.15-.22,3.01-3.4,6.01-6.8,9.02-10.2.5-.56.99-1.13,1.5-1.68.08-.09.22-.17.33-.17,1.98,0,3.95,0,5.93,0,.03,0,.06,0,.15.02-1.5,1.72-2.98,3.41-4.47,5.11.67.75,1.35,1.48,1.97,2.25.32.39.64.54,1.15.52,1.16-.04,2.33-.02,3.5-.02h.33v1.68h-.35c-3.4,0-6.81,0-10.21,0-.2,0-.34.06-.47.21-.78.89-1.57,1.77-2.39,2.68.36.39.72.78,1.08,1.16.43.46.86.91,1.28,1.38.15.16.3.23.52.23,3.38,0,6.77,0,10.15,0h.39v1.64h-.3c-1.3,0-2.6,0-3.9,0-.19,0-.32.05-.44.2-.71.85-1.42,1.7-2.16,2.58,2.01,2.23,4.01,4.47,6.07,6.76Z"/>
      <polygon class="st3" points="32.15 1.82 11.54 13.72 11.54 37.51 32.15 49.41 52.76 37.51 52.76 13.72 32.15 1.82"/>
    </g>
    <text class="st1" transform="translate(1.64 58.15)"><tspan x="0" y="0">KUTTERKLIPPER</tspan></text>
    <text class="st2" transform="translate(12.3 63.42)"><tspan x="0" y="0">KUTTERCRAFT.COM</tspan></text>
  </g>
</svg>